<svg version="1.2" baseProfile="tiny-ps" xmlns="http://www.w3.org/2000/svg" viewBox="0 0 1080 1080" width="1080" height="1080">
	<style>
		tspan { white-space:pre }
	</style>
	<path id="S " fill="chartreuse" aria-label="S"  d="M577.95 436.2L508.95 436.2Q465.05 436.2 445.66 413.96Q426.27 391.15 426.27 354.08Q426.27 271.97 548.87 271.97Q664.06 271.97 722.22 306.18L689.15 331.27Q649.23 313.02 548.87 313.02Q499.83 313.02 482.72 323.86Q466.19 334.69 466.19 354.08Q466.19 373.47 475.31 384.3Q484.43 395.14 508.95 395.14L579.66 395.14Q656.65 395.14 718.23 421.37Q780.39 447.6 820.31 493.22Q860.22 538.27 881.32 597.57Q902.42 656.31 902.42 723.6Q902.42 778.34 887.03 827.38Q871.63 876.42 840.27 917.48Q809.47 958.54 765.56 988.76Q722.22 1018.41 661.78 1035.52Q601.9 1052.06 531.76 1052.06Q421.71 1052.06 325.34 1018.98Q229.54 985.34 165.67 925.46L198.74 900.94Q256.91 953.41 344.15 982.49Q431.97 1011 531.76 1011Q609.89 1011 672.61 988.76Q735.91 965.95 776.4 926.6Q817.46 887.26 839.12 835.37Q861.36 783.47 861.36 723.6Q861.36 644.33 829.43 580.47Q797.5 516.03 731.92 476.11Q666.91 436.2 577.95 436.2ZM508.95 477.25L573.96 477.25Q689.72 477.25 754.73 547.96Q820.31 618.67 820.31 723.6Q820.31 830.23 744.46 900.37Q668.62 969.94 531.76 969.94Q440.53 969.94 361.26 944.85Q282 919.76 229.54 874.14L261.47 848.48Q308.23 886.69 378.94 907.79Q450.22 928.89 531.76 928.89Q652.09 928.89 715.38 871.29Q779.25 813.7 779.25 723.6Q779.25 634.64 725.65 576.48Q672.61 518.31 573.39 518.31L508.95 518.31Q425.7 518.31 384.07 472.69Q342.44 427.07 342.44 354.08Q342.44 281.09 393.77 235.47Q445.66 189.85 548.87 189.85Q621.29 189.85 683.45 206.96Q745.6 223.49 786.09 254.86L753.59 279.95Q682.31 230.91 548.87 230.91Q462.76 230.91 422.85 265.12Q383.5 298.77 383.5 354.08Q383.5 409.96 412.58 443.61Q442.24 477.25 508.95 477.25ZM508.95 559.37L571.68 559.37Q654.94 559.37 696.56 605.56Q738.19 651.75 738.19 723.6Q738.19 796.59 686.3 842.21Q634.98 887.83 531.76 887.83Q459.34 887.83 396.62 871.29Q334.46 854.18 293.97 822.82L326.48 797.73Q397.76 846.77 531.76 846.77Q617.87 846.77 657.22 813.13Q697.13 778.91 697.13 723.6Q697.13 668.28 667.48 634.64Q637.83 600.43 571.11 600.43L508.95 600.43Q392.05 600.43 325.91 530.86Q260.33 460.72 260.33 354.08Q260.33 247.44 336.17 177.88Q412.01 107.74 548.87 107.74Q640.11 107.74 718.8 132.83Q798.07 157.92 850.53 203.54L818.6 229.2Q771.84 190.99 701.13 169.89Q630.42 148.79 548.87 148.79Q428.55 148.79 364.68 206.39Q301.39 263.98 301.39 354.08Q301.39 443.61 354.99 501.77Q408.59 559.37 508.95 559.37ZM508.95 641.48L571.68 641.48Q615.59 641.48 634.98 664.29Q654.37 687.1 654.37 723.6Q654.37 805.71 531.76 805.71Q416 805.71 357.84 771.5L390.91 746.41Q430.83 764.66 531.76 764.66Q580.8 764.66 597.34 753.82Q614.45 742.99 614.45 723.6Q614.45 704.78 604.75 693.95Q595.63 682.54 570.54 682.54L508.95 682.54Q430.26 682.54 366.39 656.88Q303.1 631.22 262.04 586.17Q221.55 541.12 199.88 481.81Q178.21 422.51 178.21 354.08Q178.21 299.34 193.61 250.3Q209.01 201.26 239.8 160.2Q271.16 119.14 314.5 89.49Q358.41 59.26 418.29 42.73Q478.73 25.62 548.87 25.62Q658.93 25.62 754.73 59.26Q850.53 92.34 914.4 152.21L881.32 176.73Q823.16 124.27 735.91 95.76Q648.66 66.68 548.87 66.68Q470.75 66.68 407.45 89.49Q344.72 111.73 303.67 151.07Q263.18 190.42 240.94 242.31Q219.27 294.2 219.27 354.08Q219.27 434.48 251.77 498.92Q284.28 563.36 351 602.71Q417.72 641.48 508.95 641.48Z" />
</svg>